<svg width="24" height="24" viewBox="0 0 24 24" fill="none" xmlns="http://www.w3.org/2000/svg">
<path d="M22.2727 18.7949L22.6091 18.425L22.2732 18.7954C22.4175 18.9262 22.5049 19.1082 22.5168 19.3026C22.5287 19.497 22.4641 19.6884 22.3368 19.8358L22.3357 19.8372L20.0243 22.535C19.8968 22.6578 19.7294 22.7309 19.5524 22.7408L19.5501 22.7409C19.5198 22.7427 19.3749 22.75 19.1316 22.75C17.453 22.75 11.3453 22.3904 6.47761 17.5239C0.89505 11.9388 1.24293 4.72528 1.25946 4.44994L1.25954 4.44841C1.26966 4.27069 1.34263 4.10257 1.46511 3.97391L4.16072 1.66215C4.16076 1.66211 4.16081 1.66207 4.16085 1.66204C4.30903 1.5351 4.50085 1.47091 4.69558 1.48309C4.89038 1.49528 5.07275 1.58292 5.20397 1.7274L5.20415 1.7276L9.8229 6.8076L9.82317 6.8079C9.95434 6.95193 10.0243 7.14134 10.0183 7.33605C10.0123 7.53076 9.93073 7.71549 9.79092 7.85115L9.79032 7.85174L6.71657 10.8442L6.52462 11.0311L6.57388 11.2944C6.72272 12.0901 7.21327 13.6387 8.78665 15.2134L8.78724 15.214C10.3607 16.7835 11.9051 17.2735 12.7041 17.4261L12.9686 17.4766L13.1563 17.2836L16.1476 14.2073L16.1476 14.2073C16.2835 14.0675 16.4683 13.9861 16.6631 13.98C16.8578 13.974 17.0473 14.0439 17.1915 14.1749C17.1915 14.175 17.1915 14.175 17.1916 14.175L22.2727 18.7949Z" fill="black" stroke="black"/>
</svg>
